<svg width="157" height="18" xmlns="http://www.w3.org/2000/svg"><g fill="#FFF" fill-rule="evenodd"><path d="M4.5 0C1.37 0 0 2.101 0 4.436V8.35c0 .159.12.287.269.287h1.224c.148 0 .268-.128.268-.287V4.436c0-1.306.804-2.731 2.739-2.731 1.956 0 2.739 1.425 2.739 2.731v8.128c0 1.54-.783 2.731-2.739 2.731-.017 0 .593-.002-.024-.002-.15-.001-.268.129-.268.288v1.128c0 .16.119.288.267.289.617 0 .008.002.025.002C7.674 17 9 14.945 9 12.564V4.436C9 2.055 7.674 0 4.5 0M27.09 16h-1.136c-.218 0-.35-.115-.35-.322V2.118c0-.322-.175-.391-.392-.391h-2.863c-.24 0-.349-.139-.349-.368V.345c0-.23.11-.345.35-.345h8.3c.24 0 .35.115.35.345v1.014c0 .23-.11.368-.35.368h-2.882c-.22 0-.329.115-.329.345v13.56c0 .253-.131.368-.349.368M11 11.747V.36c0-.225.111-.36.333-.36h1.156c.222 0 .333.135.333.36V11.5c0 1.485.778 2.858 2.734 2.858 2.022 0 2.622-1.373 2.622-2.858V.36c0-.225.111-.36.333-.36h1.157c.222 0 .332.135.332.36v11.387C20 14.177 18.534 16 15.556 16 12.578 16 11 14.177 11 11.747M41.5 1.705c-1.934 0-2.739 1.425-2.739 2.731v8.128c0 1.308.805 2.731 2.739 2.731 1.956 0 2.739-1.191 2.739-2.731V4.436c0-1.306-.783-2.731-2.739-2.731zM46 12.564C46 14.945 44.674 17 41.5 17c-3.13 0-4.5-2.101-4.5-4.436V4.436C37 2.101 38.37 0 41.5 0 44.674 0 46 2.055 46 4.436v8.128zM55 .346v1.013c0 .254-.111.368-.354.368h-4.497c-.222 0-.333.115-.333.346v4.972c0 .138.044.207.178.207h4.076c.2 0 .332.116.332.322v1.013c0 .23-.111.346-.332.346h-3.943c-.2 0-.31.115-.31.299v6.4c0 .254-.112.368-.355.368h-1.108c-.243 0-.354-.114-.354-.368V.346c0-.23.111-.346.354-.346h6.292c.243 0 .354.115.354.346M66.09 16h-1.136c-.218 0-.35-.115-.35-.322V2.118c0-.322-.175-.391-.392-.391h-2.863c-.24 0-.349-.139-.349-.368V.346c0-.23.11-.346.35-.346h8.3c.24 0 .35.115.35.346v1.013c0 .23-.11.368-.35.368h-2.882c-.22 0-.329.115-.329.345v13.56c0 .253-.13.368-.349.368M72.489 16h-1.134c-.244 0-.355-.138-.355-.368V.346c0-.23.111-.346.355-.346h1.134c.222 0 .334.115.334.346v6.33c0 .23.11.346.332.346h4.668c.222 0 .355-.116.355-.345V.346c0-.23.111-.346.333-.346h1.156c.222 0 .333.115.333.346v15.286c0 .23-.111.368-.333.368h-1.134c-.244 0-.355-.138-.355-.368V9.071c0-.254-.111-.369-.334-.369h-4.69c-.22 0-.331.115-.331.369v6.561c0 .23-.112.368-.334.368M90 .346v1.013c0 .254-.111.368-.354.368h-4.498c-.22 0-.332.115-.332.346v4.742c0 .139.044.207.178.207h4.076c.2 0 .332.115.332.323v1.013c0 .23-.111.344-.332.344h-3.944c-.199 0-.31.116-.31.3v4.972c0 .231.111.346.332.346h4.498c.243 0 .354.116.354.345v.967c0 .254-.111.368-.354.368h-6.292c-.244 0-.354-.114-.354-.368V.346c0-.23.11-.346.354-.346h6.292c.243 0 .354.115.354.346M103.69 4.46h-1.13c-.222 0-.333-.116-.333-.326 0-1.191-.798-2.43-2.638-2.43-1.352 0-2.306.959-2.306 2.243 0 .7.245 1.377.82 1.914l4.479 4.04c.886.817 1.286 1.729 1.286 3.152 0 2.78-1.93 3.947-4.39 3.947C96.907 17 95 15.436 95 12.913c0-.257.09-.373.31-.373h1.13c.222 0 .333.116.333.326 0 1.191 1.043 2.43 2.661 2.43 1.485 0 2.571-.655 2.571-2.173 0-1.028-.443-1.517-.908-1.938l-4.102-3.69c-1.042-.933-1.618-1.984-1.618-3.502 0-2.335 1.796-3.993 4.19-3.993C102.36 0 104 1.658 104 4.086c0 .258-.088.374-.31.374M118 11.747V.36c0-.225.111-.36.333-.36h1.156c.222 0 .333.135.333.36V11.5c0 1.485.778 2.858 2.734 2.858 2.022 0 2.622-1.373 2.622-2.858V.36c0-.225.111-.36.333-.36h1.157c.222 0 .332.135.332.36v11.387c0 2.43-1.466 4.253-4.444 4.253-2.978 0-4.556-1.823-4.556-4.253M140.898 2.026v5.502c0 .276.138.414.416.414h1.62c1.758 0 2.937-1.082 2.937-3.246 0-2.187-1.341-3.015-3.053-3.015h-1.574c-.23 0-.346.115-.346.345zM148 15.654c0 .23-.115.346-.347.346h-1.296c-.138 0-.277-.07-.323-.185l-2.268-5.824c-.068-.184-.208-.368-.463-.368h-1.989c-.348 0-.416.138-.416.414v5.595c0 .23-.116.368-.348.368h-1.18c-.23 0-.37-.138-.37-.368V.345c0-.23.14-.345.37-.345h3.448c2.846 0 5.044 1.45 5.044 4.65 0 2.049-.764 3.454-2.082 4.282a.3.3 0 00-.163.277.5.5 0 00.024.183L148 15.654zM157 .346v1.013c0 .253-.111.368-.354.368h-4.498c-.22 0-.332.115-.332.346v4.742c0 .138.044.206.178.206h4.076c.2 0 .332.116.332.323v1.013c0 .23-.111.345-.332.345h-3.943c-.2 0-.31.115-.31.3v4.971c0 .231.11.346.331.346h4.498c.243 0 .354.116.354.345v.967c0 .254-.111.369-.354.369h-6.292c-.244 0-.354-.115-.354-.369V.346c0-.23.11-.346.354-.346h6.292c.243 0 .354.115.354.346M116.91 16.66l-1.977-1.967c-.114-.067-.137-.246-.137-.335.41-.648.613-1.542.613-2.346V4.236c0-2.2-1.294-4.107-4.37-4.236a.272.272 0 00-.284.271v1.094c0 .14.107.26.249.27 1.825.127 2.565 1.414 2.565 2.6v7.777c0 1.252-.705 2.614-2.864 2.614-2.045 0-2.864-1.362-2.864-2.614V8.377a.275.275 0 00-.278-.273h-1.285a.276.276 0 00-.278.273v3.635c0 2.279 1.523 4.245 4.682 4.245.932 0 1.728-.133 2.432-.514.16 0 .295.046.387.135l2.135 2.033c.047.066.137.089.25.089.091 0 .205-.023.273-.089l.727-.716a.462.462 0 00.114-.29c0-.09-.045-.201-.09-.246M134.072.208c-.047-.139-.14-.208-.301-.208h-1.4a.272.272 0 00-.265.336l.97 4.053c.003.01.008.021.01.031l1.401 5.226c.024.07.024.139.024.185 0 .206-.116.345-.324.345h-4.618a.272.272 0 00-.265.204l-.295 1.136a.273.273 0 00.265.34h5.445c.184 0 .277.07.3.208l.97 3.751c0 .116.116.185.302.185h1.386c.208 0 .323-.092.323-.276v-.138L134.072.208z"/></g></svg>