<svg xmlns="http://www.w3.org/2000/svg" width="28.676" height="27.446" viewBox="0 0 28.676 27.446">
  <path id="star-regular" d="M47.707,9.18,39.876,8.039l-3.5-7.1a1.717,1.717,0,0,0-3.077,0l-3.5,7.1L21.968,9.18a1.716,1.716,0,0,0-.949,2.927l5.665,5.521-1.34,7.8a1.714,1.714,0,0,0,2.487,1.806l7.005-3.682,7.005,3.682a1.715,1.715,0,0,0,2.487-1.806l-1.34-7.8,5.665-5.521a1.716,1.716,0,0,0-.949-2.927Zm-7.477,7.547,1.27,7.418-6.662-3.5-6.662,3.5,1.27-7.418-5.392-5.253,7.45-1.083,3.334-6.754,3.334,6.754,7.45,1.083-5.392,5.253Z" transform="translate(-20.5 0.013)" fill="#ee2997"/>
</svg>
