<svg xmlns="http://www.w3.org/2000/svg" width="24.62" height="20" viewBox="0 0 24.62 20"><path d="M22.09,5c0,.22,0,.44,0,.66A14.26,14.26,0,0,1,7.75,20,14.23,14.23,0,0,1,0,17.73a9.87,9.87,0,0,0,1.22.07,10.08,10.08,0,0,0,6.26-2.16,5.06,5.06,0,0,1-4.71-3.5,5.89,5.89,0,0,0,1,.08,5.33,5.33,0,0,0,1.33-.17,5,5,0,0,1-4-5V7a5,5,0,0,0,2.28.64A5,5,0,0,1,1.72.92,14.35,14.35,0,0,0,12.12,6.2,6.23,6.23,0,0,1,12,5.05a5.05,5.05,0,0,1,8.73-3.46A10,10,0,0,0,23.94.38a5.06,5.06,0,0,1-2.22,2.78,10.11,10.11,0,0,0,2.9-.78A10.59,10.59,0,0,1,22.09,5Z"/></svg>